<svg width="64" height="65" viewBox="0 0 64 65" fill="none" xmlns="http://www.w3.org/2000/svg">
<rect x="0.499939" y="1.27136" width="63" height="63" rx="14.5" fill="#FF7C1D" stroke="white"/>
<path d="M31.256 22.1527C31.5322 22.1527 31.7561 21.9289 31.7561 21.6525V21.3136C31.7561 21.0372 31.5322 20.8135 31.256 20.8135C30.9798 20.8135 30.7559 21.0372 30.7559 21.3136V21.6525C30.7559 21.9289 30.9798 22.1527 31.256 22.1527ZM31.256 44.861C30.9798 44.861 30.7559 45.0847 30.7559 45.3611V45.7006C30.7559 45.977 30.9798 46.2007 31.256 46.2007C31.5322 46.2007 31.7561 45.977 31.7561 45.7006V45.3611C31.7562 45.0847 31.5322 44.861 31.256 44.861ZM22.9876 24.5313C22.7922 24.3359 22.4757 24.3359 22.2803 24.5313C22.0849 24.7267 22.0849 25.0432 22.2803 25.2385L22.5201 25.4784C22.7155 25.6737 23.032 25.6737 23.2274 25.4784C23.4228 25.283 23.4228 24.9664 23.2274 24.7711L22.9876 24.5313ZM39.9919 41.5357C39.7966 41.3404 39.4801 41.3404 39.2847 41.5357C39.0893 41.7311 39.0893 42.0476 39.2847 42.243L39.5245 42.4828C39.7199 42.6782 40.0364 42.6782 40.2318 42.4828C40.4271 42.2874 40.4271 41.9709 40.2318 41.7755L39.9919 41.5357ZM19.4015 33.0067H19.0626C18.7864 33.0067 18.5624 33.2304 18.5624 33.5068C18.5624 33.7832 18.7864 34.0069 19.0626 34.0069H19.4015C19.6777 34.0069 19.9016 33.7832 19.9016 33.5068C19.9016 33.2304 19.6777 33.0067 19.4015 33.0067ZM43.4496 33.0067H43.1104C42.8342 33.0067 42.6103 33.2304 42.6103 33.5068C42.6103 33.7832 42.8342 34.0069 43.1104 34.0069H43.4496C43.7258 34.0069 43.9497 33.7832 43.9497 33.5068C43.9497 33.2304 43.7258 33.0067 43.4496 33.0067ZM22.5201 41.5357L22.2803 41.7755C22.0849 41.9709 22.0849 42.2874 22.2803 42.4828C22.4757 42.6782 22.7922 42.6782 22.9876 42.4828L23.2274 42.243C23.4228 42.0476 23.4228 41.7311 23.2274 41.5357C23.032 41.3404 22.7155 41.3404 22.5201 41.5357Z" fill="white"/>
<path d="M48.0071 23.2232C48.0071 19.6672 45.1062 16.7712 41.5451 16.7712C39.5094 16.7712 37.6989 17.7165 36.5085 19.182C34.868 18.5819 33.1024 18.2417 31.2519 18.2417C22.8392 18.2417 15.9921 25.0938 15.9921 33.5115C15.9921 41.9242 22.8393 48.7712 31.2519 48.7712C39.6696 48.7712 46.5217 41.9241 46.5217 33.5115C46.5217 31.6659 46.1866 29.9004 45.5814 28.2599C47.1219 27.0245 48.0071 25.2039 48.0071 23.2232ZM41.5451 17.7716C44.5561 17.7716 47.0068 20.2174 47.0068 23.2232C47.0068 24.7537 46.3816 26.1692 45.2812 27.1995C44.456 25.9241 43.0756 25.1489 41.5451 25.1489C40.0097 25.1489 38.6242 25.9241 37.799 27.1995C36.6987 26.1692 36.0784 24.7537 36.0784 23.2232C36.0784 20.2173 38.5292 17.7716 41.5451 17.7716ZM31.2519 47.771C23.3894 47.771 16.9924 41.3739 16.9924 33.5115C16.9924 25.644 23.3894 19.242 31.2519 19.242C32.8924 19.242 34.4629 19.5271 35.9283 20.0372C35.3931 20.9775 35.0781 22.0628 35.0781 23.2232C35.0781 25.2639 36.0084 27.1394 37.6339 28.3748C38.7592 29.2301 40.1147 29.6852 41.5451 29.6852C42.6854 29.6852 43.7708 29.3952 44.7311 28.845C45.2412 30.3055 45.5214 31.876 45.5214 33.5115C45.5214 41.374 39.1194 47.771 31.2519 47.771Z" fill="white"/>
<path d="M38.3252 33.5065C38.3252 33.7817 38.1 34.0067 37.825 34.0067H33.0835C32.8634 34.8119 32.1332 35.4072 31.258 35.4072C30.2077 35.4072 29.3574 34.5569 29.3574 33.5065C29.3574 32.6312 29.9525 31.901 30.7578 31.681V26.0642C30.7578 25.7892 30.9829 25.5641 31.2579 25.5641C31.533 25.5641 31.758 25.7892 31.758 26.0642V31.681C32.4032 31.856 32.9084 32.3612 33.0835 33.0064H37.825C38.1001 33.0064 38.3252 33.2314 38.3252 33.5065ZM43.6919 22.118C43.6919 23.3034 42.7265 24.2687 41.5412 24.2687C40.3558 24.2687 39.3955 23.3033 39.3955 22.118C39.3955 20.9327 40.3558 19.9723 41.5412 19.9723C42.7265 19.9723 43.6919 20.9326 43.6919 22.118Z" fill="white"/>
</svg>
