<svg width="44" height="50" viewBox="0 0 44 50" fill="none" xmlns="http://www.w3.org/2000/svg">
<path d="M40.323 43.6223C40.0773 43.9098 39.8181 44.1947 39.5409 44.4799C33.451 50.7759 20.9621 51.0414 13.9002 47.9093C13.4474 47.7091 13.0202 47.4954 12.6169 47.2691C10.2581 45.9741 8.12094 44.311 6.28607 42.3427C4.52566 40.4142 3.11411 38.1942 2.11454 35.782C1.80361 35.0384 1.51982 34.2582 1.26315 33.4416C1.23602 33.3543 1.20999 33.2674 1.18395 33.179C1.15095 33.0657 1.11832 32.959 1.08532 32.849C1.08068 32.8331 1.07616 32.8162 1.07176 32.7981C1.00845 32.5793 0.948068 32.3568 0.890624 32.1307C0.860191 32.0119 0.830491 31.892 0.800058 31.771C0.741026 31.5301 0.686759 31.287 0.630293 31.0377C0.60756 30.9244 0.583727 30.8177 0.561361 30.7096C0.551583 30.6658 0.542539 30.6217 0.534228 30.5772C0.521761 30.524 0.511495 30.4709 0.501228 30.4177C0.501485 30.4154 0.501485 30.413 0.501228 30.4107V30.3917C0.498023 30.3669 0.493123 30.3424 0.486562 30.3183V30.2883C0.452462 30.113 0.419829 29.9352 0.389396 29.7566C0.131077 28.298 0.000782132 26.8196 0 25.3383L0 24.9764C0 24.8565 0 24.7344 0.00806658 24.6134C0.0161332 24.4924 0.0150332 24.3872 0.0194331 24.2739V24.2017C0.0177434 24.1282 0.0211738 24.0547 0.0296997 23.9817C0.0399662 23.9083 0.0388663 23.8189 0.0443662 23.7364C0.0513328 23.63 0.0590327 23.5237 0.0670993 23.4185C0.0751659 23.3132 0.0828658 23.2183 0.0920324 23.1185C0.128699 22.6818 0.181498 22.2488 0.243831 21.8154C0.254097 21.7421 0.265464 21.6706 0.27683 21.5984C0.289297 21.5078 0.303963 21.415 0.31973 21.3256C0.335496 21.2361 0.344663 21.1716 0.35933 21.0993C0.366296 21.0575 0.372896 21.0146 0.380963 20.9725C0.389029 20.9303 0.402596 20.8592 0.412496 20.8038C0.422396 20.7484 0.438529 20.6612 0.453195 20.59C0.452658 20.5825 0.452658 20.5749 0.453195 20.5673C0.472262 20.469 0.492795 20.3715 0.513328 20.2721C0.564294 20.029 0.61966 19.7856 0.678693 19.5447C0.697759 19.46 0.719392 19.376 0.741026 19.2913C0.74387 19.2704 0.749162 19.2498 0.756792 19.2301C0.780625 19.1351 0.806658 19.039 0.832691 18.9426C0.831464 18.931 0.834745 18.9193 0.841858 18.91L0.91519 18.6397C0.939024 18.5539 0.965057 18.4689 0.988523 18.3831C1.01199 18.2973 1.04059 18.2067 1.06882 18.1206C1.09706 18.0344 1.12309 17.942 1.15242 17.8525C1.18175 17.7631 1.21695 17.6534 1.24959 17.5541C1.28222 17.4547 1.32769 17.3278 1.36289 17.2145C1.46922 16.9113 1.58288 16.6117 1.70242 16.3096C1.73395 16.2271 1.76805 16.1446 1.80215 16.0628C1.81241 16.0357 1.82378 16.0086 1.83515 15.9825L1.92021 15.7801C2.13752 15.2744 2.37219 14.7751 2.62421 14.2823C2.65574 14.22 2.68764 14.1569 2.72027 14.0946C2.7892 13.9622 2.8607 13.8299 2.93184 13.6986C2.9685 13.6275 3.01104 13.556 3.04514 13.4848C3.10967 13.3715 3.1775 13.2505 3.2468 13.1343C3.29667 13.0485 3.34653 12.9623 3.3986 12.8776C3.73666 12.3127 4.10039 11.7603 4.48979 11.2203C4.53855 11.1525 4.58585 11.0858 4.63645 11.0201L4.68852 10.949C4.73618 10.8834 4.78568 10.8188 4.83518 10.7532L4.90082 10.6648L5.04748 10.4749C5.32077 10.1241 5.60456 9.77983 5.89887 9.44201C5.9689 9.36061 6.0393 9.28031 6.11154 9.20111C6.1669 9.13768 6.22483 9.07572 6.2802 9.01448L6.41843 8.86525C6.48296 8.79522 6.5486 8.72628 6.61313 8.65699C6.67766 8.58769 6.72643 8.53709 6.7873 8.47585L6.98199 8.27786L7.16312 8.09453C7.35892 7.90459 7.55692 7.7132 7.75969 7.52876C7.84218 7.45177 7.92725 7.37623 8.01085 7.30253C8.09445 7.22883 8.16815 7.161 8.24845 7.08987L8.26531 7.0763C8.44534 6.9179 8.62758 6.76171 8.81311 6.61027L9.0914 6.38404C9.175 6.31621 9.26007 6.24948 9.34624 6.18275C9.37557 6.15891 9.40637 6.13398 9.4379 6.11161C9.51123 6.05295 9.58713 5.99831 9.66413 5.93855C9.7602 5.86522 9.85773 5.79188 9.9549 5.71855C10.1507 5.57372 10.3498 5.43219 10.5504 5.29212L10.763 5.14546C10.9057 5.04829 11.0505 4.95333 11.1953 4.85689C11.3401 4.76046 11.4886 4.66806 11.6353 4.5753C11.782 4.48253 11.9319 4.39196 12.0881 4.2992C12.2443 4.20643 12.3914 4.11917 12.541 4.03007C12.7672 3.8977 13.0052 3.76644 13.2406 3.63884C13.476 3.51124 13.715 3.38658 13.9559 3.26338C14.2764 3.10058 14.6023 2.94218 14.9305 2.78671C15.0948 2.71082 15.2605 2.63638 15.4262 2.56048C15.7562 2.41382 16.0939 2.26972 16.4324 2.13295C16.601 2.06402 16.7719 1.99729 16.9417 1.93166C17.1976 1.83388 17.4543 1.73891 17.7116 1.64676C17.9683 1.55399 18.229 1.46673 18.4904 1.38093C18.6635 1.32556 18.8369 1.26763 19.01 1.21703C19.1842 1.16276 19.3587 1.1118 19.5329 1.06083C19.7954 0.9875 20.0594 0.914168 20.3252 0.844868C20.5009 0.799769 20.6761 0.756503 20.8517 0.714703C21.0274 0.671803 21.2026 0.632204 21.3768 0.593704C22.2568 0.401573 23.1368 0.254175 24.0072 0.151509C24.1803 0.130976 24.3548 0.114843 24.5279 0.0972429C25.3051 0.0233681 26.0858 -0.00845574 26.8665 0.00191053H27.4289L27.5829 0.00887713L27.7586 0.0191437H27.8051L27.8979 0.0261103H27.9764C28.0143 0.0252531 28.0522 0.0279537 28.0897 0.0341769L28.2437 0.0466434L28.3196 0.05471L28.4248 0.0638765H28.5132L28.6254 0.0752431H28.6807L28.8274 0.0932096L28.8864 0.100176L28.944 0.107143L28.9869 0.114109H29.0298L29.0727 0.119609C29.0837 0.118574 29.0947 0.118574 29.1057 0.119609C29.1683 0.127187 29.2305 0.136231 29.2923 0.146742H29.329L29.659 0.201008H29.6759L29.7459 0.213475L29.8229 0.228141H29.8464L29.8871 0.236208L29.9604 0.250875H29.9809L30.0249 0.260041L30.1397 0.286441L30.2086 0.301107L30.3274 0.32714L30.4407 0.350974L30.5874 0.38764L30.7208 0.420273L30.7843 0.437139L30.9709 0.487005L31.0978 0.523672H31.1091L31.2518 0.564371L31.2811 0.573538L31.4043 0.610204L31.4553 0.624871L31.5378 0.652004L31.5931 0.66997L31.6247 0.680237L31.6914 0.70187L31.7897 0.735236L31.8428 0.754303C31.8645 0.761269 31.8846 0.767869 31.9063 0.777036L31.9627 0.796102L31.9899 0.806369L32.0067 0.813335C32.1065 0.850002 32.2047 0.886668 32.3034 0.926634C32.3532 0.944601 32.402 0.9633 32.45 0.9853H32.4636C32.5076 1.00327 32.552 1.02197 32.596 1.04177C32.6069 1.04512 32.6175 1.04967 32.6275 1.05533L32.7261 1.09823L32.7489 1.1085L32.8622 1.15947L32.8849 1.17083C32.9179 1.1844 32.9505 1.20016 32.9846 1.21593L33.0264 1.23756L33.1078 1.27423H33.117C33.1344 1.28199 33.1514 1.29068 33.168 1.30026C33.2046 1.31603 33.2358 1.3329 33.271 1.35123L33.3077 1.37176L33.421 1.433L33.4638 1.45573L33.5771 1.51806C33.7424 1.6085 33.9051 1.70433 34.0652 1.80552L34.1161 1.83706C34.236 1.91296 34.3548 1.99216 34.4725 2.07356L34.5041 2.09629L34.6309 2.18575L34.6562 2.20189C34.7387 2.26312 34.8205 2.32399 34.9019 2.38742L34.9947 2.46075L35.0354 2.49485L35.0489 2.50622L35.1553 2.59348C35.1919 2.62282 35.2264 2.65215 35.2616 2.68405C35.2968 2.71595 35.3115 2.72585 35.3349 2.74858C35.3442 2.7555 35.3529 2.7631 35.361 2.77131L35.4343 2.83805L35.4955 2.89341L35.5663 2.95721C35.7269 3.10754 35.8842 3.26484 36.0349 3.42874L36.0664 3.46137L36.0822 3.47934C36.09 3.48676 36.0972 3.49473 36.1038 3.50317L36.1163 3.51674C36.1237 3.52379 36.1306 3.53139 36.1368 3.53947C36.1526 3.55524 36.1662 3.57211 36.1808 3.58934L36.19 3.59961C36.1981 3.60877 36.2058 3.61647 36.2127 3.62564C36.2421 3.65827 36.2718 3.69127 36.3 3.72647C36.307 3.73344 36.3125 3.74114 36.3191 3.747L36.3462 3.77964C36.3576 3.79205 36.3682 3.80529 36.3777 3.81924L36.3946 3.8383C36.3946 3.84637 36.4082 3.85407 36.4151 3.86434C36.4221 3.8746 36.4518 3.90944 36.4727 3.93437L36.5134 3.98644L36.5247 4L36.5541 4.03667C36.5676 4.05463 36.5812 4.07333 36.5937 4.08983L36.6304 4.1375C36.8397 4.42074 37.0245 4.72126 37.1829 5.03582C37.586 5.82666 37.8003 6.70019 37.8088 7.5878V7.94309C37.8093 7.95103 37.8093 7.95899 37.8088 7.96693V8.02559C37.8073 8.06842 37.8035 8.11114 37.7974 8.15356C37.7987 8.17719 37.7959 8.20086 37.7894 8.22359C37.7824 8.28702 37.7747 8.35156 37.7655 8.41572C37.7586 8.45862 37.752 8.50409 37.7439 8.54809C37.742 8.57069 37.7378 8.59304 37.7314 8.61482C37.727 8.63755 37.7234 8.65882 37.719 8.68045C37.7098 8.72665 37.6999 8.77102 37.6896 8.81612C37.6869 8.83878 37.682 8.86113 37.675 8.88285C37.6625 8.92795 37.6522 8.97342 37.6383 9.01852C37.6355 9.04185 37.6295 9.06469 37.6203 9.08635L37.5998 9.15418C37.5862 9.20038 37.5716 9.24585 37.5569 9.29095L37.5162 9.41194C37.4287 9.65477 37.3225 9.89039 37.1983 10.1167L37.1616 10.1856C37.1165 10.267 37.0667 10.3484 37.015 10.4309C36.9933 10.4624 36.9732 10.4954 36.9504 10.5292C36.9138 10.5845 36.8745 10.6425 36.8372 10.6956C36.8181 10.7228 36.7976 10.7488 36.777 10.7759C36.7374 10.8302 36.6945 10.8834 36.6512 10.9365L36.5504 11.0564C36.5277 11.0836 36.5028 11.1107 36.4793 11.1367C36.4558 11.1628 36.4386 11.1818 36.4192 11.2035C36.3997 11.2251 36.3524 11.2746 36.3183 11.3087C36.2842 11.3428 36.2358 11.3934 36.1926 11.4341C36.1493 11.4748 36.1258 11.4986 36.0906 11.5313C35.7687 11.8287 35.4201 12.0961 35.0493 12.3298L34.866 12.4431C34.7926 12.4882 34.7153 12.5326 34.6397 12.5766L34.5378 12.6331L34.4835 12.6624L34.3827 12.7156C34.1847 12.8186 33.9764 12.9191 33.7557 13.0155C33.7308 13.028 33.7047 13.0382 33.6776 13.0522C32.8248 13.4112 31.9404 13.69 31.0358 13.8849L30.8785 13.9215L30.7403 13.9498C30.6963 13.9589 30.6519 13.9688 30.6068 13.9769L30.327 14.0323L30.051 14.0821L29.8596 14.1148C29.7463 14.1338 29.6333 14.1514 29.52 14.1679C29.2813 14.2046 29.0357 14.2391 28.7867 14.2699L28.4472 14.3095L28.4032 14.315L28.0999 14.3465L27.8906 14.367C27.7501 14.3806 27.6075 14.392 27.4627 14.4037L27.2837 14.4184C26.9063 14.447 26.5152 14.4696 26.1104 14.4862C24.0223 14.5538 21.9463 14.8316 19.9138 15.3152L19.8823 15.3233C19.1276 15.5112 18.3846 15.743 17.657 16.0177C10.2552 18.8447 9.5083 24.9834 10.7931 30.4052C12.2997 36.7965 18.0442 40.586 23.4232 41.0751C27.4597 41.4418 32.9564 40.1702 34.1766 35.8524C34.3633 35.2315 34.4467 34.5841 34.4234 33.9362C34.3828 33.1184 34.0768 32.336 33.5518 31.7076C33.0622 31.1525 32.4546 30.714 31.7735 30.4243C31.3947 30.2542 30.9984 30.126 30.5918 30.0419L32.0995 29.9638L40.6545 29.5179L43.121 29.3888C43.2286 29.6379 43.3224 29.8928 43.4019 30.1522C43.4708 30.3722 43.5485 30.6329 43.6219 30.934C44.2195 33.4122 44.6775 38.5319 40.323 43.6223Z" fill="#D42F4E"/>
<path d="M40.3263 43.5662C40.0819 43.8562 39.8222 44.1448 39.5472 44.4323C33.4628 50.7847 20.9878 51.0509 13.9336 47.8914C17.8833 48.6057 24.0704 48.9346 28.5268 45.4494C35.4721 40.0195 34.4828 34.0535 34.4513 33.8746C34.424 33.0212 34.1114 32.2016 33.5636 31.5467C33.0762 30.9871 32.469 30.5445 31.7871 30.2516L32.1127 29.7871L40.6585 29.335L43.6208 30.7649C44.2199 33.2674 44.6783 38.4322 40.3263 43.5662Z" fill="#B52B40"/>
<path d="M6.50369 42.1682C4.75267 40.2328 3.35077 38.0082 2.3604 35.5935C1.63007 33.8184 1.08453 31.9728 0.732422 30.0859L2.05021 26.5355L10.6323 19.4351C10.2209 19.7933 1.24282 28.9115 6.50369 42.1682Z" fill="#B52B40"/>
<path d="M37.7663 7.62043V7.97353C37.7668 7.98134 37.7668 7.98918 37.7663 7.99699V8.05529C37.7648 8.09788 37.761 8.14035 37.7549 8.18253C37.7561 8.20604 37.7534 8.22959 37.7468 8.25219C37.7399 8.31526 37.7322 8.37942 37.723 8.44322C37.7164 8.48612 37.7094 8.53086 37.7014 8.57485C37.6994 8.59733 37.6952 8.61956 37.6889 8.64122C37.6845 8.66359 37.6808 8.68522 37.6764 8.70649C37.6673 8.75269 37.6574 8.79632 37.6471 8.84142C37.6444 8.86397 37.6395 8.88619 37.6324 8.90778C37.62 8.95288 37.6097 8.99762 37.5958 9.04272C37.593 9.06594 37.5869 9.08865 37.5778 9.11018L37.5576 9.17765C37.5441 9.22385 37.5294 9.26858 37.5147 9.31368L37.474 9.43395C37.3867 9.67544 37.2805 9.90972 37.1565 10.1346L37.1198 10.2032C37.0747 10.2842 37.0249 10.3653 36.9732 10.4474C36.9515 10.4789 36.9314 10.5116 36.9086 10.5453C36.872 10.6003 36.8327 10.6579 36.7957 10.7107C36.7766 10.7378 36.7561 10.7635 36.7359 10.7906C36.6963 10.8445 36.6534 10.8973 36.6105 10.9505L36.5101 11.0696C36.4873 11.0968 36.4628 11.1235 36.4389 11.1496C36.4151 11.1756 36.3983 11.1947 36.3792 11.2159C36.3601 11.2372 36.3125 11.2867 36.2787 11.3204C36.245 11.3542 36.1962 11.4048 36.1533 11.4451C36.1104 11.4854 36.0866 11.5093 36.0518 11.5419C35.7301 11.8377 35.382 12.1034 35.0119 12.3357L34.8286 12.4483C34.7552 12.4934 34.6782 12.537 34.6023 12.581L34.5008 12.6371L34.4465 12.6664L34.346 12.7192C34.148 12.8215 33.9401 12.9216 33.7198 13.0173C33.6948 13.0298 33.6688 13.0397 33.6417 13.054C32.7892 13.4111 31.9054 13.6881 31.0017 13.8816L30.8444 13.9182L30.7065 13.9465C30.6625 13.9556 30.6185 13.9655 30.5731 13.9736L30.294 14.0286L30.0183 14.0781L29.8273 14.1107C29.7144 14.1298 29.6011 14.1474 29.4881 14.1635C29.2498 14.2002 29.0045 14.2343 28.7548 14.2647L28.4164 14.3018L28.3724 14.3073L28.0695 14.3388L27.8605 14.359C27.7204 14.3725 27.5778 14.3835 27.4333 14.3956L27.2548 14.4103C26.8781 14.4389 26.4877 14.4614 26.0837 14.4778C23.9987 14.545 21.9257 14.8212 19.8959 15.302L19.8676 15.3097C19.0932 15.5345 18.354 15.7596 17.6453 16.0001C12.0045 17.8951 8.37605 20.3792 5.09661 25.0868C1.45932 30.3029 2.08998 35.3915 2.11161 35.5682C1.80117 34.829 1.51786 34.053 1.26169 33.2403C1.23455 33.1537 1.20852 33.0672 1.18249 32.9792C1.14985 32.8666 1.11685 32.7592 1.08422 32.6492C1.07982 32.6336 1.0753 32.6167 1.07066 32.5986C1.00734 32.3813 0.94709 32.1601 0.889891 31.9349C0.859458 31.8169 0.830125 31.6977 0.799325 31.5774C0.739559 31.338 0.686393 31.096 0.629927 30.85C0.607194 30.7374 0.583727 30.6329 0.560994 30.524C0.551216 30.4805 0.542172 30.4366 0.533861 30.3924C0.521394 30.3396 0.511128 30.2868 0.501228 30.234C0.501462 30.2318 0.501462 30.2296 0.501228 30.2274V30.2083C0.498039 30.1836 0.493139 30.1591 0.486562 30.135V30.1137C0.485974 30.1119 0.485974 30.11 0.486562 30.1082C0.452829 29.9341 0.419829 29.7573 0.389396 29.5795C0.131068 28.1284 0.00076808 26.6575 0 25.1836L0 24.825C0 24.7058 0 24.5845 0.00806658 24.4638C0.0161332 24.3432 0.0146665 24.2391 0.0194331 24.1265V24.055C0.0175689 23.9815 0.020877 23.908 0.029333 23.835C0.0395996 23.7617 0.0384996 23.6729 0.0439995 23.5908C0.0505995 23.4852 0.058666 23.3792 0.0667326 23.2747C0.0747992 23.1702 0.0824991 23.0756 0.0916657 22.9766C0.128332 22.5425 0.181131 22.1117 0.243097 21.6812C0.253364 21.6079 0.264731 21.5371 0.27573 21.4653C0.288197 21.3754 0.302863 21.2841 0.31863 21.1943C0.334396 21.1045 0.343563 21.0414 0.35823 20.9695C0.364829 20.9281 0.371796 20.8852 0.379863 20.8434C0.387929 20.8016 0.401496 20.7308 0.411396 20.6758C0.421296 20.6208 0.437429 20.5343 0.452095 20.4632C0.451569 20.4557 0.451569 20.4482 0.452095 20.4408C0.471162 20.3429 0.491695 20.2461 0.511861 20.1475C0.562827 19.9058 0.618193 19.6638 0.676859 19.4244C0.695926 19.3401 0.717559 19.2568 0.739192 19.1725C0.742045 19.1517 0.747337 19.1312 0.754959 19.1116C0.778792 19.017 0.804825 18.9217 0.830858 18.826C0.829593 18.8144 0.832877 18.8027 0.840024 18.7934L0.913357 18.5246C0.93719 18.4392 0.963223 18.3549 0.98669 18.2705C1.01016 18.1862 1.03876 18.0953 1.06699 18.0095C1.09522 17.9237 1.12125 17.8316 1.15059 17.7429C1.17992 17.6542 1.21512 17.5449 1.24775 17.4459C1.28039 17.3469 1.32585 17.2211 1.36069 17.1086C1.46702 16.8072 1.58068 16.5091 1.69985 16.2088C1.73138 16.1266 1.76548 16.0445 1.79921 15.9635C1.80948 15.9363 1.82085 15.9096 1.83185 15.8835L1.91655 15.6822C2.13361 15.1794 2.36803 14.6831 2.61981 14.1932C2.65134 14.1313 2.68324 14.0686 2.71587 14.0066C2.7848 13.875 2.85594 13.7433 2.92707 13.6128C2.96374 13.542 3.00627 13.4713 3.04 13.4001C3.10453 13.2876 3.17237 13.1673 3.2413 13.0514C3.29117 12.966 3.34066 12.8806 3.39273 12.7948C3.73031 12.2326 4.09355 11.6834 4.48245 11.1474C4.53122 11.0799 4.57852 11.0135 4.62912 10.9483L4.68118 10.8775C4.72848 10.8122 4.77835 10.7481 4.82785 10.6828L4.89348 10.5952L5.04015 10.4063C5.31294 10.0578 5.59625 9.71554 5.89007 9.37968C5.9601 9.29865 6.03014 9.21871 6.10274 9.14025C6.1581 9.07718 6.21567 9.01558 6.27103 8.95472L6.4089 8.80805C6.47343 8.73839 6.53906 8.66982 6.60323 8.60125C6.6674 8.53269 6.71616 8.48209 6.77739 8.42122L6.97173 8.22433L7.15249 8.04319C7.34792 7.85436 7.54592 7.66406 7.74832 7.48073C7.83082 7.4041 7.91552 7.32894 7.99912 7.25597C8.08272 7.183 8.15641 7.11554 8.23635 7.0444L8.25321 7.03084L8.26348 7.02314C8.43679 6.8733 8.61279 6.72333 8.79147 6.57324L9.0694 6.34848C9.153 6.28101 9.2377 6.21465 9.32387 6.14828C9.3532 6.12481 9.38363 6.09988 9.41553 6.07751C9.48887 6.01922 9.56477 5.96495 9.64176 5.90555C9.73783 5.83222 9.835 5.75888 9.93216 5.68849C10.1276 5.54439 10.3267 5.40395 10.5269 5.26462L10.7396 5.11796C10.8818 5.02116 11.0267 4.92693 11.1715 4.83123C11.3163 4.73553 11.4648 4.6435 11.6115 4.5511C11.7581 4.4587 11.9077 4.36777 12.0636 4.27683C12.2194 4.1859 12.3664 4.0979 12.5157 4.00917C12.7419 3.87754 12.9791 3.74701 13.2142 3.62014C13.4492 3.49327 13.6923 3.36824 13.9332 3.24688C14.2529 3.08481 14.5785 2.92751 14.9063 2.77462C15.0702 2.69798 15.2363 2.62392 15.4013 2.54985C15.7328 2.40001 16.0678 2.25835 16.4063 2.12489C16.5746 2.05632 16.7455 1.98996 16.9149 1.92469C17.1703 1.82691 17.427 1.73244 17.6849 1.64126C17.9415 1.54886 18.2015 1.46233 18.4626 1.3769C18.6356 1.3219 18.8083 1.26433 18.9814 1.21373C19.1554 1.15971 19.3295 1.10801 19.5035 1.05863C19.7657 0.985301 20.0293 0.911969 20.2948 0.843769C20.4701 0.79867 20.6453 0.756137 20.8206 0.714338C20.9958 0.671438 21.1711 0.632205 21.3449 0.594072C22.2249 0.403041 23.1027 0.256742 23.972 0.154077C24.1451 0.13391 24.3189 0.11741 24.492 0.100177C25.2658 0.0258188 26.043 -0.00698352 26.8203 0.00191162H27.3824L27.5364 0.0103449L27.7116 0.0206114H27.7564L27.8491 0.0272114H27.9272C27.965 0.0262666 28.0028 0.0288443 28.0402 0.0349113L28.1964 0.0473778L28.2697 0.0550777L28.3749 0.0642443L28.4395 0.0708442L28.5773 0.0855108H28.6327L28.7775 0.103477L28.8362 0.110077L28.893 0.117044L28.944 0.123644H28.9807L29.0236 0.129144C29.0344 0.128133 29.0453 0.128133 29.0562 0.129144C29.1188 0.136721 29.181 0.145766 29.2428 0.156277H29.2795L29.6095 0.210176H29.6264L29.6938 0.221909L29.7708 0.236576L29.8398 0.249042L29.9131 0.263709H29.9333L29.9773 0.272875L30.0902 0.297442L30.1591 0.312108L30.2779 0.338141L30.3908 0.361608L30.5357 0.398274L30.6691 0.430907L30.7326 0.447774L30.9192 0.497273L31.0457 0.533939H31.0563L31.1986 0.574272L31.2279 0.583439L31.3511 0.620105L31.4021 0.634772L31.4846 0.661905L31.5715 0.690138L31.6382 0.711404L31.7398 0.748071L31.7897 0.766037C31.8113 0.772637 31.8315 0.779603 31.8531 0.788403L31.9096 0.80747L31.9367 0.817736L31.9536 0.824336C32.0529 0.861003 32.1516 0.897669 32.2498 0.936902C32.2997 0.954868 32.3481 0.973568 32.3965 0.995201H32.4101C32.4541 1.01317 32.4981 1.03187 32.5424 1.0513C32.5534 1.05466 32.564 1.05921 32.574 1.06487L32.6722 1.10777L32.695 1.11803L32.8079 1.16863L32.8306 1.18L32.9718 1.24637L33.0532 1.28303H33.0624C33.0798 1.29079 33.0968 1.29948 33.1133 1.30906C33.15 1.32483 33.1812 1.3417 33.2164 1.35966L33.253 1.37983L33.3663 1.4385L33.4092 1.46086L33.5221 1.52283C33.6871 1.61278 33.8496 1.70799 34.0094 1.80846L34.0604 1.83999C34.1803 1.91516 34.2987 1.99399 34.4164 2.07502L34.448 2.09739L34.5745 2.18612L34.5976 2.20189C34.6801 2.26275 34.7615 2.32325 34.8429 2.38522L34.9356 2.45855L34.9763 2.49229L34.9899 2.50365L35.0962 2.59018C35.1329 2.61952 35.1674 2.64848 35.2026 2.68002C35.2378 2.71155 35.2524 2.72145 35.2759 2.74418C35.2851 2.75098 35.2938 2.75846 35.3019 2.76655L35.3753 2.83292L35.4361 2.88791L35.5051 2.95098C35.6657 3.10058 35.8226 3.25678 35.9729 3.41994L36.0045 3.45258L36.0202 3.47054C36.028 3.47784 36.0352 3.48569 36.0419 3.49401L36.0543 3.50757C36.0616 3.51452 36.0683 3.522 36.0745 3.52994L36.1185 3.57944L36.1277 3.58971C36.1357 3.59887 36.1434 3.60657 36.1504 3.61574C36.1797 3.64837 36.2091 3.68101 36.2373 3.71584C36.2531 3.73271 36.2688 3.75251 36.2835 3.76864C36.2949 3.78093 36.3055 3.79405 36.315 3.80787L36.3319 3.82694C36.3319 3.83464 36.3454 3.8427 36.3521 3.85297C36.3587 3.86324 36.3887 3.89807 36.4096 3.92264L36.4503 3.97434L36.4617 3.9879L36.4833 4.01394C36.4856 4.01799 36.4883 4.0218 36.4914 4.0253C36.5049 4.04327 36.5185 4.06197 36.531 4.0781L36.5676 4.1243C36.776 4.40577 36.96 4.70445 37.1176 5.01713C37.5384 5.82075 37.7608 6.71335 37.7663 7.62043Z" fill="#FFCB35"/>
<path d="M37.7671 7.46448V7.81941C37.7677 7.82735 37.7677 7.83531 37.7671 7.84324V7.90191C37.7656 7.94474 37.7618 7.98745 37.7558 8.02987C37.757 8.05351 37.7543 8.07717 37.7477 8.09991C37.7411 8.16334 37.733 8.22787 37.7239 8.29204C37.7173 8.33494 37.7103 8.3804 37.7022 8.4244C37.7003 8.447 37.6961 8.46935 37.6898 8.49114C37.6854 8.51387 37.6817 8.53514 37.6773 8.55677C37.6681 8.60297 37.6582 8.64733 37.648 8.69243C37.6452 8.7151 37.6403 8.73745 37.6333 8.75917C37.6208 8.80427 37.6106 8.84973 37.5966 8.89483C37.5938 8.91817 37.5878 8.941 37.5787 8.96266L37.5585 9.0305C37.5449 9.0767 37.5303 9.12216 37.5156 9.16726L37.4749 9.28826C37.3876 9.53093 37.2816 9.76643 37.1577 9.99262L37.1211 10.0616C37.076 10.143 37.0261 10.2244 36.9744 10.3069C36.9528 10.3384 36.9326 10.3714 36.9099 10.4051C36.8732 10.4605 36.8343 10.518 36.7969 10.5712C36.7779 10.5983 36.7573 10.6244 36.7372 10.6515C36.6976 10.7058 36.6547 10.7589 36.6118 10.8121L36.5113 10.932C36.4886 10.9591 36.464 10.9863 36.4402 11.0123C36.4163 11.0383 36.3995 11.0574 36.3804 11.079C36.3613 11.1007 36.3137 11.1502 36.2799 11.1843C36.2462 11.2184 36.1974 11.269 36.1545 11.3097C36.1116 11.3504 36.0878 11.3742 36.053 11.4068C35.7318 11.7041 35.3839 11.9713 35.0139 12.2051L34.8305 12.318C34.7572 12.3631 34.6802 12.4075 34.6047 12.4515L34.5031 12.5079L34.4488 12.5373L34.3484 12.5904C34.1507 12.6935 33.9428 12.7939 33.7228 12.89C33.6979 12.9025 33.6719 12.9127 33.6447 12.9267C32.7939 13.2856 31.9114 13.5642 31.0088 13.759L30.8519 13.7956L30.714 13.8239C30.67 13.833 30.626 13.8429 30.5809 13.851L30.3019 13.9064L30.0261 13.9562L29.8351 13.9889C29.7222 14.0079 29.6092 14.0255 29.4963 14.042C29.258 14.0787 29.013 14.1132 28.763 14.144L28.4242 14.1836L28.3802 14.1891L28.0777 14.2206L27.8687 14.2411C27.7286 14.2547 27.5864 14.2661 27.4419 14.2778L27.2633 14.2925C26.8869 14.3211 26.4969 14.3437 26.0933 14.3603C24.01 14.428 21.9389 14.7058 19.9114 15.1893L19.8831 15.1974C19.1095 15.4236 18.371 15.6499 17.663 15.8919C12.03 17.7952 8.40477 20.2944 5.1301 25.0284C1.49464 30.2735 2.12383 35.3906 2.1462 35.5681C1.836 34.8247 1.55294 34.0445 1.29701 33.2273C1.26987 33.1404 1.24384 33.0531 1.21781 32.9648C1.18517 32.8518 1.15217 32.7448 1.11954 32.6348C1.11514 32.6189 1.11062 32.6019 1.10597 32.5838C1.04266 32.3653 0.98241 32.1428 0.92521 31.9165C0.894777 31.7977 0.865444 31.6778 0.835011 31.5568C0.775245 31.3159 0.722079 31.0728 0.665613 30.8235C0.64288 30.7105 0.619413 30.6035 0.59668 30.4957C0.586903 30.4519 0.577858 30.4078 0.569547 30.3633C0.557081 30.3101 0.546814 30.257 0.536914 30.2038C0.537169 30.2015 0.537169 30.1992 0.536914 30.1968V30.1781C0.533707 30.1534 0.528807 30.1289 0.522248 30.1048V30.0832C0.31545 28.8391 -1.01774 18.5766 10.1981 13.5903C22.1495 8.27554 34.1709 11.7717 36.8505 7.88504V7.87258L36.0299 3.30176L36.0614 3.33439L36.0772 3.35236C36.0849 3.35942 36.0921 3.36702 36.0988 3.37509L36.1113 3.38866C36.1186 3.39584 36.1253 3.40356 36.1314 3.41176L36.1754 3.46162L36.1846 3.47189C36.1927 3.48106 36.2004 3.48876 36.2073 3.49792L36.3203 3.62332L36.3474 3.65595C36.3589 3.66837 36.3694 3.6816 36.3789 3.69555L36.3958 3.71462C36.3958 3.72269 36.4094 3.73039 36.416 3.74065C36.4226 3.75092 36.4589 3.79052 36.479 3.81765C36.4992 3.84479 36.5029 3.84699 36.5157 3.86275L36.5271 3.87632L36.5487 3.90235L36.5579 3.91482C36.5714 3.93278 36.585 3.95148 36.5975 3.96798L36.6341 4.01418C36.8414 4.29847 37.0242 4.59985 37.1805 4.91507C37.5693 5.7085 37.7701 6.58089 37.7671 7.46448Z" fill="#FF853C"/>
<path d="M40.0205 43.6349C41.0894 32.3156 33.1273 31.3748 33.1273 31.3748L32.2656 30.6004L43.0371 30.0684C43.671 32.1059 44.8227 37.8896 40.0205 43.6349Z" fill="#932335"/>
<path d="M43.6391 37.4015C44.0513 34.6882 40.7964 31.5866 35.8989 31.5569C32.5725 31.5386 31.3156 32.0666 27.6999 33.248C20.0601 35.746 15.2983 33.006 15.042 27.8408C15.0332 27.678 15.0332 27.5159 15.0332 27.355C15.0306 26.2005 15.343 25.0671 15.9366 24.077C15.9361 24.0747 15.9361 24.0723 15.9366 24.07C17.3538 21.7534 20.4759 20.2256 25.5696 20.1706C31.9495 20.0998 36.9582 21.6255 40.3036 25.0736C40.9086 25.6978 41.4539 26.3772 41.9323 27.1031C42.3257 27.6951 42.6658 28.3209 42.9487 28.973C44.052 31.6418 44.2934 34.5888 43.6391 37.4015Z" fill="#FF853C"/>
<path d="M42.8996 28.8307C37.4872 21.9085 26.9131 29.5164 20.2358 30.3645C15.5124 30.964 15.0647 27.5382 15.0332 27.2409C15.031 26.1028 15.3431 24.9862 15.9352 24.0142C15.9347 24.0121 15.9347 24.0098 15.9352 24.0076C17.349 21.7281 20.4657 20.2244 25.5509 20.1705C31.9217 20.1012 36.92 21.6023 40.2596 24.9954C40.8628 25.6088 41.4071 26.2775 41.8854 26.9926C42.2774 27.5739 42.6168 28.1891 42.8996 28.8307Z" fill="#FFCB35"/>
<path d="M40.332 24.9376C35.5049 20.5061 26.5033 24.3183 23.2323 25.7131C19.9613 27.1078 17.3423 27.6465 16.3266 26.5483C15.3469 25.4927 15.9394 24.0656 15.9812 23.9659C15.9807 23.9637 15.9807 23.9615 15.9812 23.9593C17.3965 21.7084 20.5161 20.2238 25.6061 20.1706C31.986 20.1042 36.9892 21.5863 40.332 24.9376Z" fill="#FD4349"/>
<path d="M37.3523 7.01616C37.2819 7.46821 37.0962 7.89451 36.8133 8.25402C35.0273 10.4775 29.4104 9.75513 22.8566 6.48597C14.3233 2.23378 8.80906 6.90653 8.43359 7.21233C8.6047 7.05833 8.7796 6.90433 8.95829 6.75033L9.23475 6.51933C9.31798 6.45004 9.40232 6.38184 9.48775 6.31364C9.51708 6.28944 9.54715 6.26414 9.57868 6.2403C9.65201 6.18017 9.72535 6.12481 9.80345 6.06357C9.89915 5.99024 9.99558 5.91361 10.0924 5.84064C10.2867 5.69398 10.4847 5.54731 10.6834 5.40541L10.8946 5.25545C11.0362 5.15608 11.1799 5.05928 11.324 4.96212C11.4681 4.86495 11.614 4.76925 11.764 4.67465C11.914 4.58006 12.0573 4.48509 12.2135 4.39269C12.3697 4.30029 12.5146 4.20936 12.663 4.11769C12.8878 3.98239 13.1239 3.84856 13.3575 3.71803C13.5911 3.5875 13.8283 3.45917 14.0677 3.3345C14.3856 3.16804 14.7094 3.00634 15.0354 2.84941C15.1982 2.77094 15.3635 2.69467 15.5274 2.61841C15.8572 2.46441 16.1902 2.31885 16.5266 2.18171C16.6941 2.11131 16.8635 2.04311 17.0322 1.97602C17.2862 1.87506 17.5413 1.77802 17.7974 1.68489C18.0541 1.59029 18.3108 1.50155 18.5707 1.41355C18.7427 1.35709 18.9146 1.29806 19.0866 1.24599C19.2597 1.1905 19.4327 1.13734 19.6058 1.08649C19.8665 1.01023 20.1283 0.93506 20.3923 0.866494C20.5665 0.820294 20.7406 0.776295 20.9148 0.733762C21.089 0.689763 21.2631 0.64943 21.4362 0.610197C22.3081 0.413665 23.1822 0.263334 24.0465 0.158468C24.2184 0.137568 24.3915 0.119235 24.5635 0.103102C25.3321 0.0267066 26.1044 -0.00707807 26.8767 0.00190303H27.4352L27.5881 0.00886962L27.7622 0.0191362H27.8084L27.9034 0.0279361H27.9808C28.0183 0.0270249 28.0559 0.0297262 28.093 0.0360027L28.2459 0.0488359L28.321 0.0569025L28.4255 0.066069H28.5131L28.6253 0.0789022H28.6803L28.8241 0.0972354L28.8824 0.104202L28.9396 0.111902L28.9821 0.118868H29.0213L29.0639 0.124735C29.0747 0.123685 29.0857 0.123685 29.0965 0.124735C29.1586 0.132313 29.2204 0.141602 29.282 0.152601H29.3187L29.6458 0.207968H29.6626L29.7323 0.220801L29.8368 0.240601L29.8771 0.248667L29.9505 0.2637H29.9706L30.0146 0.272867L30.1243 0.295233L30.1928 0.310266L30.3109 0.336666L30.4231 0.360866L30.5668 0.397532L30.6996 0.430899L30.7626 0.448132L30.9482 0.499098L31.0739 0.535764H31.0853L31.2268 0.577197L31.2562 0.586364L31.3786 0.625597L31.4292 0.64063L31.5114 0.668496L31.5979 0.697462L31.7687 0.756495L31.8182 0.774828C31.8395 0.781795 31.8597 0.788761 31.8813 0.797928L31.9374 0.817728L31.9645 0.827994L31.9814 0.834961C32.0804 0.871627 32.1779 0.908293 32.2747 0.95046C32.3242 0.968793 32.3726 0.989693 32.4214 1.01059H32.435C32.479 1.02893 32.5226 1.04726 32.5666 1.06816C32.5776 1.07161 32.5882 1.07628 32.5981 1.08209L32.696 1.12609L32.7184 1.13636L32.8306 1.18842L32.853 1.19979C32.8856 1.21372 32.9182 1.22986 32.952 1.24599L32.9934 1.26799L33.0744 1.30722H33.0836C33.1009 1.3151 33.1178 1.32391 33.1342 1.33362C33.1709 1.34976 33.2017 1.36699 33.2365 1.38569L33.2732 1.40659L33.3854 1.46892L33.4279 1.49202L33.5401 1.55545C33.7041 1.64785 33.8656 1.74563 34.0245 1.84878L34.0751 1.88105C34.1942 1.95842 34.3123 2.03945 34.4289 2.12231L34.4604 2.14541L34.5862 2.23671L34.6086 2.25395C34.6907 2.31628 34.7714 2.37861 34.8524 2.44351L34.9851 2.55351L34.9987 2.56488L35.1043 2.65398C35.1409 2.68404 35.175 2.71411 35.2099 2.74637C35.2447 2.77864 35.2594 2.78927 35.2832 2.81237C35.2923 2.81943 35.3009 2.82715 35.3089 2.83547L35.3822 2.90367L35.4431 2.96014L35.5116 3.02467C35.6711 3.1783 35.8273 3.3389 35.9769 3.5061L36.0085 3.53947L36.0242 3.5578C36.0319 3.56536 36.039 3.57344 36.0455 3.582L36.058 3.59593C36.0653 3.60312 36.072 3.61084 36.0781 3.61903L36.1221 3.67L36.1313 3.68026C36.139 3.68943 36.1471 3.6975 36.1537 3.70666C36.183 3.74003 36.212 3.77376 36.2402 3.80933C36.2673 3.8405 36.293 3.87166 36.3176 3.90393L36.3344 3.92373C36.3344 3.9318 36.348 3.93986 36.3546 3.95013C36.3612 3.96039 36.3913 3.99633 36.4118 4.02346L36.4521 4.07663L36.4635 4.09056L36.4848 4.11696C36.487 4.12099 36.4895 4.1248 36.4925 4.12833C36.506 4.14666 36.5196 4.16499 36.5317 4.18259L36.5684 4.23099C36.777 4.52061 36.961 4.82724 37.1184 5.14765C37.3807 5.73381 37.4621 6.38491 37.3523 7.01763V7.01616Z" fill="#FD4349"/>
<path d="M20.3759 40.7814L18.7219 40.1287L18.334 39.9208C18.334 39.9208 20.1783 40.1196 21.1371 37.6321C22.0959 35.1447 20.4848 34 20.4848 34L24.8606 33.7349C24.5735 33.9215 23.5582 35.7724 24.6179 38.5799C25.3512 40.5196 26.3998 41.2933 26.3998 41.2933L22.3673 41.4348L20.3759 40.7814Z" fill="url(#paint0_linear_1_312)"/>
<path d="M17.2324 38.8682C17.2324 38.8682 18.7772 39.7874 19.7991 39.4284L19.2322 40.3348L17.407 39.6015L17.2324 38.8682Z" fill="#D42F4E"/>
<path d="M26.4004 41.0681C26.5073 41.1387 26.6273 41.1872 26.7532 41.2108C26.8791 41.2345 27.0085 41.2327 27.1337 41.2056L26.7161 41.4348L26.4873 41.2837L26.4004 41.0681Z" fill="#D42F4E"/>
<path d="M24.8231 33.7348C24.9599 33.625 25.1253 33.5567 25.2997 33.5379L24.5664 33.3682L24.8231 33.7348Z" fill="#FF853C"/>
<path d="M20.5331 33.7888C20.6802 33.8528 20.8027 33.9624 20.8825 34.1015L20.8998 33.7349L20.5331 33.7888Z" fill="#FF853C"/>
<path d="M36.3051 21.9721L36.4103 22.0018C36.3736 21.9993 36.3378 21.9892 36.3051 21.9721ZM31.9004 20.7185C31.9004 20.7185 32.8867 20.8399 33.6604 18.7338C34.434 16.6276 34.8143 13.0985 34.6045 12.2438C34.3413 11.1691 35.1861 11.2656 35.1861 11.2656L35.967 10.6573L36.8452 10.2228L37.6819 8.10053L37.6629 5.86865C37.9672 6.94249 38.1249 8.05252 38.1318 9.16862C38.1147 10.8852 37.8864 12.5931 37.452 14.2539C37.3549 14.6033 37.2031 15.1265 37.0795 15.4873C35.218 20.9202 35.9956 21.8222 36.3051 21.9721L31.9004 20.7185Z" fill="url(#paint1_linear_1_312)"/>
<path d="M31.6797 20.4475C31.9385 20.4784 32.2008 20.4339 32.4349 20.3194C32.6691 20.2048 32.8652 20.0251 32.9996 19.8018L32.2498 21.2684L31.533 20.8361L31.6797 20.4475Z" fill="#FD4349"/>
<path d="M35.7375 21.2683C35.7375 21.2683 35.7181 21.8579 36.6663 22.3683H35.9553L35.5663 21.8729L35.7375 21.2683Z" fill="#FD4349"/>
<path d="M13.6046 22.5739C11.7585 22.7679 10.793 23.2075 10.6328 23.3296L12.0628 19.8867L13.8719 18.335C13.8719 18.335 13.5111 18.9077 15.5153 19.8188C17.9573 20.9306 21.9994 20.3021 21.9994 20.3021L16.209 23.4682C16.209 23.4682 17.0164 22.2161 13.6046 22.5739Z" fill="url(#paint2_linear_1_312)"/>
<defs>
<linearGradient id="paint0_linear_1_312" x1="22.4556" y1="40.0257" x2="23.0743" y2="35.713" gradientUnits="userSpaceOnUse">
<stop stop-color="#D42F4E"/>
<stop offset="1" stop-color="#FF853C"/>
</linearGradient>
<linearGradient id="paint1_linear_1_312" x1="34.5924" y1="19.1785" x2="36.9901" y2="15.9985" gradientUnits="userSpaceOnUse">
<stop stop-color="#FD4349"/>
<stop offset="1" stop-color="#FF853C"/>
</linearGradient>
<linearGradient id="paint2_linear_1_312" x1="13.2926" y1="20.2343" x2="14.3987" y2="23.0723" gradientUnits="userSpaceOnUse">
<stop stop-color="#D42F4E"/>
<stop offset="1" stop-color="#FD4349"/>
</linearGradient>
</defs>
</svg>
