<svg width="34" height="33" viewBox="0 0 34 33" fill="none" xmlns="http://www.w3.org/2000/svg">
<path d="M16.256 6.15266C16.5322 6.15266 16.7561 5.92891 16.7561 5.65254V5.3136C16.7561 5.03716 16.5322 4.81348 16.256 4.81348C15.9798 4.81348 15.7559 5.03723 15.7559 5.3136V5.65254C15.7559 5.92891 15.9798 6.15266 16.256 6.15266ZM16.256 28.861C15.9798 28.861 15.7559 29.0847 15.7559 29.3611V29.7006C15.7559 29.977 15.9798 30.2007 16.256 30.2007C16.5322 30.2007 16.7561 29.977 16.7561 29.7006V29.3611C16.7562 29.0847 16.5322 28.861 16.256 28.861ZM7.98756 8.53129C7.79219 8.33591 7.47569 8.33591 7.28031 8.53129C7.08494 8.72666 7.08494 9.04316 7.28031 9.23854L7.52013 9.47835C7.7155 9.67373 8.032 9.67373 8.22738 9.47835C8.42275 9.28298 8.42275 8.96641 8.22738 8.7711L7.98756 8.53129ZM24.9919 25.5357C24.7966 25.3404 24.4801 25.3404 24.2847 25.5357C24.0893 25.7311 24.0893 26.0476 24.2847 26.243L24.5245 26.4828C24.7199 26.6782 25.0364 26.6782 25.2318 26.4828C25.4271 26.2874 25.4271 25.9709 25.2318 25.7755L24.9919 25.5357ZM4.4015 17.0067H4.06256C3.78638 17.0067 3.56244 17.2304 3.56244 17.5068C3.56244 17.7832 3.78638 18.0069 4.06256 18.0069H4.4015C4.67769 18.0069 4.90163 17.7832 4.90163 17.5068C4.90163 17.2304 4.67769 17.0067 4.4015 17.0067ZM28.4496 17.0067H28.1104C27.8342 17.0067 27.6103 17.2304 27.6103 17.5068C27.6103 17.7832 27.8342 18.0069 28.1104 18.0069H28.4496C28.7258 18.0069 28.9497 17.7832 28.9497 17.5068C28.9497 17.2304 28.7258 17.0067 28.4496 17.0067ZM7.52013 25.5357L7.28031 25.7755C7.08494 25.9709 7.08494 26.2874 7.28031 26.4828C7.47569 26.6782 7.79219 26.6782 7.98756 26.4828L8.22738 26.243C8.42275 26.0476 8.42275 25.7311 8.22738 25.5357C8.032 25.3404 7.7155 25.3404 7.52013 25.5357Z" fill="white"/>
<path d="M33.0071 7.22324C33.0071 3.66718 30.1062 0.77124 26.5451 0.77124C24.5094 0.77124 22.6989 1.71649 21.5085 3.18199C19.868 2.58187 18.1024 2.24168 16.2519 2.24168C7.83925 2.24168 0.992126 9.0938 0.992126 17.5115C0.992126 25.9242 7.83931 32.7712 16.2519 32.7712C24.6696 32.7712 31.5217 25.9241 31.5217 17.5115C31.5217 15.6659 31.1866 13.9004 30.5814 12.2599C32.1219 11.0245 33.0071 9.20393 33.0071 7.22324ZM26.5451 1.77162C29.5561 1.77162 32.0068 4.21737 32.0068 7.22324C32.0068 8.75374 31.3816 10.1692 30.2812 11.1995C29.456 9.92412 28.0756 9.14887 26.5451 9.14887C25.0097 9.14887 23.6242 9.92412 22.799 11.1995C21.6987 10.1692 21.0784 8.75374 21.0784 7.22324C21.0784 4.2173 23.5292 1.77162 26.5451 1.77162ZM16.2519 31.771C8.38944 31.771 1.99238 25.3739 1.99238 17.5115C1.99238 9.64399 8.38944 3.24199 16.2519 3.24199C17.8924 3.24199 19.4629 3.52712 20.9283 4.03724C20.3931 4.97749 20.0781 6.0628 20.0781 7.22318C20.0781 9.26387 21.0084 11.1394 22.6339 12.3748C23.7592 13.2301 25.1147 13.6852 26.5451 13.6852C27.6854 13.6852 28.7708 13.3952 29.7311 12.845C30.2412 14.3055 30.5214 15.876 30.5214 17.5115C30.5214 25.374 24.1194 31.771 16.2519 31.771Z" fill="white"/>
<path d="M23.3252 17.5065C23.3252 17.7817 23.1 18.0067 22.825 18.0067H18.0835C17.8634 18.8119 17.1332 19.4072 16.258 19.4072C15.2077 19.4072 14.3574 18.5569 14.3574 17.5065C14.3574 16.6312 14.9525 15.901 15.7578 15.681V10.0642C15.7578 9.78917 15.9829 9.5641 16.2579 9.5641C16.533 9.5641 16.758 9.78923 16.758 10.0642V15.681C17.4032 15.856 17.9084 16.3612 18.0835 17.0064H22.825C23.1001 17.0064 23.3252 17.2314 23.3252 17.5065ZM28.6919 6.11798C28.6919 7.30335 27.7265 8.26867 26.5412 8.26867C25.3558 8.26867 24.3955 7.30329 24.3955 6.11798C24.3955 4.93267 25.3558 3.97229 26.5412 3.97229C27.7265 3.97229 28.6919 4.9326 28.6919 6.11798Z" fill="white"/>
</svg>
