<svg width="64" height="64" viewBox="0 0 64 64" fill="none" xmlns="http://www.w3.org/2000/svg">
<rect x="0.5" y="0.5" width="63" height="63" rx="14.5" fill="#FF7C1D" stroke="white"/>
<path d="M31.2561 21.3813C31.5323 21.3813 31.7562 21.1576 31.7562 20.8812V20.5422C31.7562 20.2658 31.5323 20.0421 31.2561 20.0421C30.9799 20.0421 30.7559 20.2659 30.7559 20.5422V20.8812C30.7559 21.1576 30.9799 21.3813 31.2561 21.3813ZM31.2561 44.0896C30.9799 44.0896 30.7559 44.3133 30.7559 44.5897V44.9292C30.7559 45.2057 30.9799 45.4294 31.2561 45.4294C31.5323 45.4294 31.7562 45.2056 31.7562 44.9292V44.5897C31.7563 44.3133 31.5323 44.0896 31.2561 44.0896ZM22.9876 23.7599C22.7923 23.5646 22.4758 23.5646 22.2804 23.7599C22.085 23.9553 22.085 24.2718 22.2804 24.4672L22.5202 24.707C22.7156 24.9024 23.0321 24.9024 23.2274 24.707C23.4228 24.5116 23.4228 24.1951 23.2274 23.9997L22.9876 23.7599ZM39.992 40.7644C39.7966 40.569 39.4801 40.569 39.2848 40.7644C39.0894 40.9597 39.0894 41.2762 39.2848 41.4716L39.5246 41.7114C39.7199 41.9068 40.0364 41.9068 40.2318 41.7114C40.4272 41.5161 40.4272 41.1995 40.2318 41.0042L39.992 40.7644ZM19.4016 32.2353H19.0626C18.7864 32.2353 18.5625 32.459 18.5625 32.7354C18.5625 33.0119 18.7864 33.2356 19.0626 33.2356H19.4016C19.6778 33.2356 19.9017 33.0118 19.9017 32.7354C19.9017 32.4591 19.6778 32.2353 19.4016 32.2353ZM43.4496 32.2353H43.1104C42.8343 32.2353 42.6103 32.459 42.6103 32.7354C42.6103 33.0119 42.8343 33.2356 43.1104 33.2356H43.4496C43.7258 33.2356 43.9498 33.0118 43.9498 32.7354C43.9498 32.4591 43.7258 32.2353 43.4496 32.2353ZM22.5202 40.7644L22.2804 41.0042C22.085 41.1995 22.085 41.5161 22.2804 41.7114C22.4758 41.9068 22.7923 41.9068 22.9876 41.7114L23.2274 41.4716C23.4228 41.2762 23.4228 40.9597 23.2274 40.7644C23.0321 40.569 22.7156 40.569 22.5202 40.7644Z" fill="white"/>
<path d="M48.0072 22.4519C48.0072 18.8958 45.1063 15.9999 41.5452 15.9999C39.5095 15.9999 37.699 16.9451 36.5086 18.4106C34.8681 17.8105 33.1024 17.4703 31.2519 17.4703C22.8393 17.4703 15.9922 24.3224 15.9922 32.7401C15.9922 41.1528 22.8394 47.9999 31.2519 47.9999C39.6696 47.9999 46.5217 41.1528 46.5217 32.7401C46.5217 30.8946 46.1866 29.129 45.5814 27.4885C47.1219 26.2531 48.0072 24.4326 48.0072 22.4519ZM41.5452 17.0003C44.5561 17.0003 47.0069 19.446 47.0069 22.4519C47.0069 23.9824 46.3817 25.3979 45.2813 26.4281C44.4561 25.1528 43.0756 24.3775 41.5452 24.3775C40.0097 24.3775 38.6242 25.1528 37.7991 26.4281C36.6987 25.3978 36.0785 23.9824 36.0785 22.4519C36.0785 19.4459 38.5292 17.0003 41.5452 17.0003ZM31.2519 46.9996C23.3895 46.9996 16.9924 40.6026 16.9924 32.7401C16.9924 24.8726 23.3895 18.4706 31.2519 18.4706C32.8924 18.4706 34.463 18.7558 35.9284 19.2659C35.3932 20.2061 35.0781 21.2914 35.0781 22.4518C35.0781 24.4925 36.0084 26.3681 37.6339 27.6034C38.7593 28.4587 40.1147 28.9139 41.5452 28.9139C42.6855 28.9139 43.7709 28.6238 44.7312 28.0736C45.2413 29.5341 45.5214 31.1046 45.5214 32.7401C45.5214 40.6026 39.1194 46.9996 31.2519 46.9996Z" fill="white"/>
<path d="M38.3252 32.7352C38.3252 33.0103 38.1001 33.2353 37.8251 33.2353H33.0836C32.8635 34.0405 32.1333 34.6358 31.258 34.6358C30.2077 34.6358 29.3574 33.7856 29.3574 32.7352C29.3574 31.8599 29.9526 31.1297 30.7579 30.9096V25.2929C30.7579 25.0178 30.983 24.7927 31.258 24.7927C31.5331 24.7927 31.7581 25.0179 31.7581 25.2929V30.9096C32.4033 31.0847 32.9084 31.5898 33.0835 32.2351H37.825C38.1002 32.2351 38.3252 32.4601 38.3252 32.7352ZM43.6919 21.3466C43.6919 22.532 42.7266 23.4973 41.5412 23.4973C40.3559 23.4973 39.3955 22.5319 39.3955 21.3466C39.3955 20.1613 40.3559 19.2009 41.5412 19.2009C42.7266 19.2009 43.6919 20.1612 43.6919 21.3466Z" fill="white"/>
</svg>
